{
	"asset":{
		"version":"2.0",
		"generator":"Created using the official Cinema 4D glTF Exporter 1.000x284978"
	},
	"scenes":[{
		"nodes":[0]
	}],
	"nodes":[{
		"name":"Cube",
		"mesh":0
	}],
	"meshes":[{
		"name":"Cube",
		"primitives":[{
			"attributes":{
				"POSITION":1,
				"NORMAL":2,
				"TEXCOORD_0":3
			},
			"indices":0,
			"material":0
		}]
	}],
	"accessors":[{
		"bufferView":0,
		"max":[165],
		"componentType":5123,
		"type":"SCALAR",
		"count":612,
		"byteOffset":0,
		"min":[0]
	},
	{
		"bufferView":1,
		"max":[100.0,
		100.0,
		100.0],
		"componentType":5126,
		"type":"VEC3",
		"count":166,
		"byteOffset":0,
		"min":[-100.0,
		-100.0,
		-100.0]
	},
	{
		"bufferView":1,
		"max":[0.9832740426063538,
		0.9865115880966187,
		0.983273983001709],
		"componentType":5126,
		"type":"VEC3",
		"count":166,
		"byteOffset":12,
		"min":[-0.9832740426063538,
		-0.9865115880966187,
		-0.983273983001709]
	},
	{
		"bufferView":1,
		"max":[1.0,
		1.0],
		"componentType":5126,
		"type":"VEC2",
		"count":166,
		"byteOffset":24,
		"min":[0.0,
		0.0]
	}],
	"bufferViews":[{
		"buffer":0,
		"byteOffset":0,
		"byteLength":1224,
		"target":34963
	},
	{
		"buffer":0,
		"byteOffset":1224,
		"byteLength":5312,
		"target":34962,
		"byteStride":32
	}],
	"buffers":[{
		"uri":"data:application/octet-stream;base64,",
		"byteLength":6536
	}],
	"materials":[{
		"alphaMode":"OPAQUE",
		"pbrMetallicRoughness":{
			"baseColorFactor":[0.27666666666666719,
			0.0,
			0.8300000000000001,
			1.0],
			"metallicFactor":0.27,
			"roughnessFactor":0.6
		},
		"emissiveFactor":[0.0,
		0.0,
		0.0],
		"doubleSided":false,
		"name":"Mat"
	}]
}